<svg width="67" height="42" viewBox="0 0 67 42" fill="none" xmlns="http://www.w3.org/2000/svg">
<path d="M42.5411 4.42676H24.4314V36.9667H42.5411V4.42676Z" fill="#FF5F00"/>
<path d="M25.5826 20.6968C25.5826 14.0853 28.6871 8.22124 33.4589 4.42682C29.9519 1.66725 25.5251 0 20.6958 0C9.2551 0 -0.000976562 9.25607 -0.000976562 20.6968C-0.000976562 32.1375 9.2551 41.3936 20.6958 41.3936C25.5251 41.3936 29.9519 39.7264 33.4589 36.9668C28.6871 33.2299 25.5826 27.3083 25.5826 20.6968Z" fill="#EB001B"/>
<path d="M66.9768 20.6968C66.9768 32.1375 57.7208 41.3936 46.28 41.3936C41.4508 41.3936 37.024 39.7264 33.517 36.9668C38.3463 33.1724 41.3933 27.3083 41.3933 20.6968C41.3933 14.0853 38.2888 8.22124 33.517 4.42682C37.024 1.66725 41.4508 0 46.28 0C57.7208 0 66.9768 9.31356 66.9768 20.6968Z" fill="#F79E1B"/>
</svg>
